**ABCDEFGHIJKLMNOPQRSTUVWXYZabcdefghijklmnopqrstuvwxyz**************************
**PARASOLID !"#$%&'()*+,-./:;<=>?@[\]^_`{|}~0123456789**************************
**PART1;
MC=unknown;
MC_MODEL=unknown;
MC_ID=unknown;
OS=unknown;
OS_RELEASE=unknown;
FRU=Parasolid 37.1.212;
APPL=Onshape;
SITE=unknown;
USER=unknown;
FORMAT=text;
GUISE=transmit;
KEY=BTGapi::writeModels_.xmt;
FILE=BTGapi::writeModels_.xmt;
DATE=2026-07-16T14:09:01 (UTC);
**PART2;
SCH=SCH_3701212_37102;
USFLD_SIZE=0;
**PART3;
**END_OF_HEADER*****************************************************************
T51 : TRANSMIT FILE created by modeller version 370121223 SCH_3701212_37102_1300
6239 0 12 36 CCCI7 lattice222 0 CCCI4 mesh1006 0 I8 polyline1008 0 CCCCCCCDI5 ow
ner1040 0 CCCI16 boundary_lattice222 0 CCCI13 boundary_mesh1006 0 I17 boundary_p
olyline1008 0 CCCA16 index_map_offset0 0 1 dA9 index_map82 0 A17 node_id_index_m
ap82 0 A20 schema_embedding_map82 0 A5 child12 0 A14 lowest_node_id0 0 1 dA16 me
sh_offset_data206 0 Z1 272 2 3 0 0 0 0 0 0 0 1e3 1e-8 0 4 0 1 0 1 2 5 0 6 7 8 0
 0 9 10 11 0 0 0 0 0 0 0 81 255 1 2 267 12 1 13 0 0 0 14 70 11 CI9 list_type0 0
 1 uI10 notransmit0 0 1 lCCCDCCDI12 finger_index0 0 1 dI12 finger_block1012 0 CZ
3 0 4 T1 0 0 5 20 1 15 15 13 255 5 102 0 1 0 16 0 0 17 0 51 255 6 99 0 18 19 0 0
 --.252134921843551 .02880945335797535 .003 0 0 -1 .0182160920673753 -1 0 0 30 2
55 7 101 0 10 20 0 0 +.015674696291742 .164072055699623 .003 0 0 -1 29 255 8 85
 0 21 22 0 -.02636311888202905 .164072055699623 0 19 9 CCCCCCI5 frame230 0 CA5 o
wner12 0 Z9 34 0 1 17 0 23 0 V0 16 255 10 88 24 ?25 0 27 7 0 0 1 18 255 11 28 30
 29 0 26 28 ?1 81 1 30 116 34 11 0 0 35 24 32 17 255 29 0 33 31 31 11 38 40 0 36
 +18 26 23 39 38 11 21 37 ?1 29 28 30 0 11 37 22 -.02636311888202905 .1640720556
99623 .003 29 37 25 0 26 0 28 .015674696291742 .164072055699623 .003 29 22 86 0
 41 28 8 .015674696291742 .164072055699623 0 18 41 77 45 43 21 0 22 ?1 81 1 45 1
13 34 41 0 0 0 39 42 17 43 0 44 46 46 41 50 48 0 25 -18 21 73 35 50 26 41 8 ?1 8
1 1 35 115 34 21 0 0 39 30 47 17 50 0 49 36 25 21 43 48 0 51 +15 255 49 89 0 50
 55 0 17 36 0 49 38 50 11 51 27 0 52 -17 25 0 49 50 38 41 53 10 0 54 +16 48 61 5
7 ?50 60 59 56 0 0 1 17 51 0 58 54 52 21 36 27 0 46 +15 58 91 0 54 16 0 17 54 0
 58 53 51 41 46 59 0 0 +17 52 0 58 51 53 11 31 61 0 0 -16 27 87 62 ?51 10 40 20
 0 0 1 17 46 0 44 43 43 21 54 59 0 0 -15 44 60 0 46 64 0 16 59 65 63 ?54 48 65 6
7 0 0 1 81 1 63 121 34 59 0 0 70 69 66 16 65 69 68 ?75 59 0 71 0 0 1 134 255 67
 83 0 59 71 56 0 +73 72 31 255 71 84 0 65 74 67 0 +-.252134921843551 .0288094533
5797535 0 0 0 1 1 0 0 .0182160920673753 30 56 82 0 48 67 20 0 +-.005344211295143
54 .164072055699623 0 -1 0 0 136 255 73 3 24 3 22 6 FFF2 76 80 77 135 255 72 2 0
 45 255 72 76 -.02636311888202905 .164072055699623 0 -.0316733861156957 .1851382
563606635 0 -.0505210923704518 .1859026902252275 0 -.01957006187573495 .07996991
34549458 0 -.2000445326357145 .0560207144034703 0 -.109071104900072 .24248512895
4378 0 -.320073605967264 .0993366893785583 0 -.3983499761439005 .021799335756109
6 0 -.207244327774925 -.2085667317346835 0 -.250185522109415 .0167796829083181 0
 -.130131993846355 -.1118014522328902 0 -.0573952330634763 .02448270117860685 0
 -.00471137410990335 -.2254055643036815 0 .0436266273291486 .025779097014472 0 .
122107994555803 -.124641460949979 0 .2470241738538265 .0224771805042224 0 .17333
8378861748 -.207771223970257 0 .482451679177715 .0587473107315314 0 .06146991181
72404 .2528769991342625 0 .216158565827486 .0794547740902229 0 .0143013860531175
2 .0524066802831607 0 .0372244204522804 .2167855554415845 0 .0252028112890784 .1
756568821799005 0 .015674696291742 .164072055699623 0 127 255 24 80 4 1 1 1 1 1
 1 1 1 1 1 1 1 1 1 1 1 1 1 1 1 4 0 0 128 255 24 77 0 .02109366847610725 .0627251
706651211 .1105793566990266 .1557626565828875 .216612907959707 .2663036112010955
 .3284833712033795 .3730834991090245 .4182974489112625 .459673247149669 .5105778
97093166 .560763586202337 .604078278360211 .650072200548132 .694095024047845 .76
0610402184644 .835451662496493 .879257883601671 .928726931473266 .97527626102951
 1 ??30 20 100 0 27 56 7 0 +-.02636311888202905 .164072055699623 .003 0 0 -1 30
 74 20 0 40 78 71 0 +-.00534421129514354 .164072055699623 .003 -1 0 0 16 40 18 7
0 ?29 27 61 74 0 0 1 134 78 15 0 61 79 74 81 +85 83 16 61 13 69 ?31 40 60 78 0 0
 1 31 79 10 0 60 0 78 0 +-.252134921843551 .02880945335797535 .003 0 0 1 1 0 0 .
0182160920673753 141 255 81 19 81 81 78 136 85 3 24 3 22 6 FFF2 82 84 89 135 83
 2 0 45 72 82 -.02636311888202905 .164072055699623 .003 -.0316733861156957 .1851
382563606635 .003 -.0505210923704518 .1859026902252275 .003 -.01957006187573495
 .0799699134549458 .003 -.2000445326357145 .0560207144034703 .003 -.109071104900
072 .242485128954378 .003 -.320073605967264 .0993366893785583 .003 -.39834997614
39005 .0217993357561096 .003 -.207244327774925 -.2085667317346835 .003 -.2501855
22109415 .0167796829083181 .003 -.130131993846355 -.1118014522328902 .003 -.0573
952330634763 .02448270117860685 .003 -.00471137410990335 -.2254055643036815 .003
 .0436266273291486 .025779097014472 .003 .122107994555803 -.124641460949979 .003
 .2470241738538265 .0224771805042224 .003 .173338378861748 -.207771223970257 .00
3 .482451679177715 .0587473107315314 .003 .0614699118172404 .2528769991342625 .0
03 .216158565827486 .0794547740902229 .003 .01430138605311752 .0524066802831607
 .003 .0372244204522804 .2167855554415845 .003 .0252028112890784 .17565688217990
05 .003 .015674696291742 .164072055699623 .003 127 24 84 4 1 1 1 1 1 1 1 1 1 1 1
 1 1 1 1 1 1 1 1 1 4 0 0 128 24 89 0 .02109366847610725 .0627251706651211 .11057
93566990266 .1557626565828875 .216612907959707 .2663036112010955 .32848337120337
95 .3730834991090245 .4182974489112625 .459673247149669 .510577897093166 .560763
586202337 .604078278360211 .650072200548132 .694095024047845 .760610402184644 .8
35451662496493 .879257883601671 .928726931473266 .97527626102951 1 ??67 255 19 9
8 0 16 90 6 0 +78 0 0 -1 ?14 255 16 92 87 ?18 0 58 5 19 -0 0 18 0 23 50 255 90 9
7 0 55 88 19 0 +-.00534421129514354 .164072055699623 .003 0 -1 0 0 0 -1 14 55 90
 86 ?93 18 49 5 90 -0 0 93 18 23 50 88 81 0 64 95 90 0 +.04205085151690695 .0224
5024944507175 0 0 0 1 1 0 0 14 64 53 91 ?0 93 94 5 88 -0 0 0 93 23 50 95 3 0 93
 0 88 0 +.04205085151690695 .02245024944507175 .003 0 0 1 1 0 0 14 93 1 92 ?64 5
5 96 5 95 +0 0 64 55 23 81 1 92 271 100 93 98 0 86 91 97 15 96 6 0 99 93 33 13 2
3 35 0 0 0 0 0 0 9 16 17 99 0 96 99 99 0 101 60 0 0 -15 33 7 0 31 93 0 17 31 0 3
3 29 29 26 52 61 0 53 +17 53 0 58 52 54 26 25 10 0 0 -17 101 0 105 101 101 0 99
 60 0 0 +16 60 8 103 ?101 61 48 79 0 0 1 81 1 103 124 34 60 0 0 68 102 104 80 7
 CCCCCDI12 legal_owners0 17 1 lCZ1 34 106 110 9000 0 0 0 0 3 6 0 0 0 FFTFTFTTFFF
FFFFFF1 81 1 68 123 34 65 0 0 69 103 107 81 1 102 125 34 55 0 86 103 108 109 82
 255 3 104 6 7 1 81 1 86 270 100 55 102 0 112 92 115 81 1 108 126 34 64 0 91 102
 98 114 82 3 109 6 0 2 81 1 91 272 100 64 108 0 92 0 111 81 1 98 127 34 93 0 92
 108 113 116 82 3 114 6 1 2 81 1 113 128 34 16 0 87 98 117 119 82 3 116 6 2 2 81
 1 87 268 100 16 113 0 0 112 118 81 1 117 130 34 1 0 120 113 122 125 82 3 119 6
 3 2 81 1 120 265 124 1 117 13 0 0 121 81 1 122 214 34 18 0 112 117 0 123 82 3 1
25 6 0 3 14 18 94 112 ?55 16 105 5 6 +0 0 55 16 23 81 1 112 269 100 18 122 0 87
 86 130 82 3 123 12 0 2 80 1 100 0 126 8001 0 0 0 0 3 5 0 0 0 FFFFTFTFFFFFFFFFF2
 83 255 3 130 .615686274509804 .811764705882353 .929411764705882 79 255 15 126 S
DL/TYSA_COLOUR15 105 93 0 101 18 128 15 128 95 0 127 18 0 17 127 0 128 127 127 0
 75 65 0 0 -17 75 0 94 75 75 0 127 65 0 0 +15 94 59 0 75 64 44 80 1 124 129 131
 8038 0 0 0 0 0 0 0 0 0 TTTTTTTTTTTTTFTFT10 81 1 13 266 129 1 120 2 0 0 135 98 2
55 6 121 80 97 114 116 32 49 80 1 129 132 133 8017 0 0 0 0 0 0 0 0 0 TTTTTTTTTTT
TTFTFT3 84 255 6 135 Part 179 13 133 SDL/TYSA_NAME79 14 131 SDL/TYSA_UNAME83 3 1
18 .615686274509804 .811764705882353 .929411764705882 83 3 111 .615686274509804
 .811764705882353 .929411764705882 83 3 115 .615686274509804 .811764705882353 .9
29411764705882 81 1 69 122 34 61 0 0 63 68 134 82 3 107 6 6 1 82 3 134 6 5 1 79
 9 110 BTI/DetId83 3 97 .615686274509804 .811764705882353 .929411764705882 81 1
 70 120 34 40 0 0 57 63 136 81 1 57 119 34 48 0 0 62 70 140 82 3 136 6 3 1 81 1
 62 118 34 27 0 0 24 57 138 82 3 140 6 2 1 81 1 24 117 34 10 0 0 30 62 137 82 3
 138 6 1 1 82 3 137 6 0 1 82 3 66 6 4 1 17 38 0 49 25 36 26 29 40 0 31 -81 1 39
 114 34 26 0 0 45 35 139 82 3 47 6 2 0 82 3 139 6 1 0 82 3 42 6 0 0 82 3 32 6 3
 0 19 17 103 0 1 0 9 5 0 S0 74 4 CI16 index_map_offset0 0 1 dCCZ20 15 5 0 0 122
 120 13 2 91 0 0 0 0 0 0 0 0 0 0 0 0 0 0 0 80 1 12 100 144 8040 0 0 0 0 3 5 0 0
 0 TTTFFFFFFFFFFFFFF2 83 3 14 .615686274509804 .811764705882353 .929411764705882
 79 17 144 SDL/TYSA_COLOUR_21 0 
